<svg xmlns="http://www.w3.org/2000/svg" viewBox="0 0 512 512"><circle cx="255.997" cy="255.999" r="255.997" fill="#87d7f5"/><g fill="#baeaf7"><path d="M407.68 49.775h-39.764c-7.334 0-13.323 5.96-13.323 13.333 0 7.356 5.966 13.322 13.322 13.322h31.5c7.42 0 13.323 6.022 13.323 13.322 0 7.356-5.966 13.322-13.322 13.322h-73.305c-7.292 0-13.323 5.922-13.323 13.323 0 7.356 5.966 13.322 13.322 13.322h99.417c7.351 0 13.322 5.962 13.322 13.323 0 7.356-5.966 13.322-13.322 13.322h-39.16c-7.292 0-13.323 5.922-13.323 13.323 0 7.356 5.966 13.322 13.322 13.322l115.056.001C485.375 128.974 451.98 82.412 407.68 49.775zM33.488 129.354l105.136-.001c7.356 0 13.322-5.966 13.322-13.322 0-7.407-6.038-13.323-13.323-13.323h-19.16c-7.356 0-13.322-5.966-13.322-13.322 0-7.355 5.964-13.323 13.322-13.323h50.418c7.356 0 13.322-5.966 13.322-13.322 0-7.407-6.038-13.323-13.323-13.323h-65.065C75.785 70.7 51.404 97.942 33.488 129.354z"/></g><path d="M.005 256.002c0 22.313 2.861 43.956 8.225 64.588h495.545c5.364-20.634 8.225-42.277 8.225-64.588 0-5.325-.182-10.606-.503-15.85H.508a259.226 259.226 0 0 0-.503 15.85z" fill="#77c680"/><path d="M137.321 240.151H.508a260.055 260.055 0 0 0-.503 15.85c0 22.313 2.861 43.956 8.225 64.588h136.813c-5.364-20.634-8.225-42.277-8.225-64.588 0-5.324.182-10.606.503-15.85z" fill="#59aa5f"/><path d="M506.789 307.637H5.216c23.888 116.632 127.092 204.361 250.788 204.361s226.898-87.729 250.785-204.361z" fill="#9f9fa0"/><path d="M193.477 307.637H5.216c18.459 90.124 84.283 162.976 170.319 191.443-62.82-48.019-53.763-155.52 17.942-191.443z" fill="#888889"/><path d="M95.83 455.694c43.855 35.221 99.549 56.304 160.173 56.304s116.318-21.084 160.172-56.304H95.83z" fill="#ebe4dd"/><path d="M96.289 456.055c1.062.849 2.13 1.689 3.205 2.521 22.313 17.267 47.948 31.211 76.041 40.505-15.18-11.604-26.151-26.686-33.067-43.387H95.835l.454.361z" fill="#d8d8d8"/><path d="M142.654 485.575a254.242 254.242 0 0 0 43.368 16.728v-46.609h-43.368v29.881z" fill="#f95e5a"/><path d="M142.654 456.144v29.431a253.787 253.787 0 0 0 32.864 13.492c-15.036-11.497-25.94-26.407-32.864-42.923z" fill="#ea5050"/><g fill="#f95e5a"><path d="M232.127 455.694v55.194c7.862.728 15.824 1.11 23.876 1.11 6.559 0 13.057-.262 19.492-.746v-55.558h-43.368zM318.804 455.694v48.527a254.135 254.135 0 0 0 43.368-15.217v-33.31h-43.368z"/></g><path d="M231.217 49.419h-19.854c-7.358 0-13.323 5.965-13.323 13.323s5.965 13.323 13.323 13.323h19.854c7.358 0 13.323-5.965 13.323-13.323s-5.965-13.323-13.323-13.323z" fill="#baeaf7"/><path d="M445.583 367.632a7.849 7.849 0 0 1-4.751-1.596L291.069 252.737a7.884 7.884 0 0 1 9.514-12.574l149.763 113.299a7.885 7.885 0 0 1 1.531 11.044 7.87 7.87 0 0 1-6.294 3.126z" fill="#f95e5a"/><path d="M280.613 287.736a14.12 14.12 0 0 1-6.775-1.732c-6.883-3.748-9.423-12.367-5.675-19.249l27.997-51.406c3.749-6.883 12.367-9.425 19.249-5.675 6.883 3.748 9.424 12.367 5.675 19.25l-27.997 51.404a14.187 14.187 0 0 1-12.474 7.408z" fill="#888889"/><path d="M300.249 253.064c-2.594 0-5.224-.63-7.662-1.959-5.262-2.865-8.269-8.248-8.363-13.84l-16.06 29.489c-3.749 6.883-1.208 15.502 5.675 19.25a14.131 14.131 0 0 0 6.775 1.732c5.028 0 9.9-2.679 12.475-7.406l16.469-30.239a16.127 16.127 0 0 1-9.309 2.973z" fill="#757575"/><path d="M191.086 384.102l-9.972 2.359c-15.438 3.653-31.059-5.99-34.711-21.429L122.34 263.324c-3.653-15.438 5.99-31.059 21.429-34.711l9.972-2.359c15.439-3.653 31.059 5.99 34.711 21.429l24.064 101.709c3.651 15.438-5.991 31.058-21.43 34.71z" fill="#d8d8d8"/><path d="M180.095 359.902l-25.337-107.088c-2.372-10.025.586-20.119 7.012-27.289a28.624 28.624 0 0 0-8.031.729l-9.972 2.359c-15.438 3.653-25.081 19.273-21.429 34.711l24.064 101.709c3.653 15.439 19.273 25.081 34.711 21.429l9.972-2.359a28.609 28.609 0 0 0 7.506-2.947c-8.956-3.531-16.124-11.229-18.496-21.254z" fill="#c7c7c9"/><path d="M400.214 372.406c-2.005 0-4.043-.36-6.025-1.122l-111.624-42.857-65.86 35.838c-8.158 4.443-18.373 1.425-22.811-6.734-4.44-8.159-1.425-18.372 6.734-22.811l72.679-39.549a16.817 16.817 0 0 1 14.066-.928l103.236 39.636 5.404-13.9c3.366-8.658 13.112-12.946 21.771-9.582 8.657 3.366 12.947 13.113 9.582 21.771l-10.595 29.51c-2.588 6.651-9.821 10.728-16.557 10.728z" fill="#d8d8d8"/><path d="M379.878 346.367l-91.275-35.044a15.916 15.916 0 0 0-13.309.878L206.53 349.62c-5.02 2.731-7.963 7.774-8.266 13.089 5.124 4.03 12.355 4.873 18.442 1.558l65.86-35.838 91.196 35.014 6.116-17.076z" fill="#c7c7c9"/><path d="M192.931 292.636l-53.359-25.853c-8.359-4.051-11.852-14.111-7.803-22.47 4.052-8.359 14.111-11.851 22.47-7.803l47.268 22.902 73.128-23.761c8.839-2.875 18.323 1.965 21.193 10.798 2.87 8.834-1.964 18.323-10.798 21.193l-79.566 25.853a16.826 16.826 0 0 1-12.533-.859z" fill="#9f9fa0"/><path d="M295.826 246.45a16.813 16.813 0 0 0-1.908-3.962 16.462 16.462 0 0 1-9.687 8.368l-78.171 25.4a16.527 16.527 0 0 1-12.311-.844l-52.423-25.4a16.449 16.449 0 0 1-7.956-8.333c-.6.816-1.144 1.689-1.602 2.634-4.049 8.359-.556 18.419 7.803 22.47l53.359 25.853a16.821 16.821 0 0 0 12.531.859l79.566-25.853c8.835-2.87 13.669-12.358 10.799-21.192z" fill="#888889"/><path d="M324.98 353.784a7.884 7.884 0 0 1-7.409-10.576l26.598-73.264a7.882 7.882 0 0 1 10.101-4.72 7.884 7.884 0 0 1 4.72 10.101l-26.598 73.264a7.889 7.889 0 0 1-7.412 5.195z" fill="#d8d8d8"/><path d="M460.19 322.211l-105.118-96.979c-5.017-4.629-13.109-2.868-15.748 3.428l-13.217 31.523a8.54 8.54 0 0 0 3.894 10.857l103.822 59.774 26.367-8.603z" fill="#f8a748"/><path d="M436.266 313.232a14.123 14.123 0 0 1 2.629-4.666l-101.71-58.558a9.08 9.08 0 0 1-4.494-5.528l-6.584 15.703a8.54 8.54 0 0 0 3.894 10.857l100.954 58.122 5.311-15.93z" fill="#ea8c2f"/><path d="M460.19 322.211l-14.601 37.538 36.689 16.05a254.993 254.993 0 0 0 7.239-14.742l-29.327-38.846z" fill="#f8a748"/><path d="M453.468 339.492l-7.879 20.256 36.689 16.05a254.993 254.993 0 0 0 7.239-14.742l-6.531-8.651-29.518-12.913z" fill="#ea8c2f"/><path d="M428.224 373.211c-7.435-2.479-11.452-10.517-8.973-17.951l14.015-42.027c2.479-7.435 10.518-11.454 17.951-8.973 7.435 2.479 11.452 10.517 8.973 17.951l-14.015 42.027c-2.479 7.435-10.517 11.452-17.951 8.973z" fill="#888889"/><path d="M443.965 342.44c-1.62 0-3.267-.257-4.888-.798-6.33-2.111-10.365-7.925-10.54-14.229l-9.286 27.846c-2.479 7.434 1.538 15.472 8.973 17.951 7.435 2.48 15.473-1.539 17.951-8.973l8.819-26.446a15.484 15.484 0 0 1-11.029 4.649z" fill="#757575"/><path d="M110.008 394.074H18.032c-6.938 0-12.614-5.676-12.614-12.614v-80.604c0-6.938 5.676-12.614 12.614-12.614h91.976c6.938 0 12.614 5.676 12.614 12.614v80.604c0 6.937-5.676 12.614-12.614 12.614z" fill="#ebe4dd"/><path d="M49.884 277.445l51.849 40.277H53.946c0-.001 12.547-17.173-4.062-40.277z" fill="#9f9fa0"/><circle cx="30.398" cy="300.769" r="30.393" fill="#d8d8d8"/><path d="M24.455 304.196c-6.307-10.924-5.06-24.135 2.117-33.589a30.306 30.306 0 0 0-11.37 3.836C.665 282.836-4.315 301.424 4.078 315.96c8.393 14.537 26.981 19.517 41.517 11.125a30.279 30.279 0 0 0 9.007-7.929c-11.776 1.489-23.84-4.037-30.147-14.96z" fill="#c7c7c9"/><circle cx="30.398" cy="300.769" r="16.957" fill="#9f9fa0"/><path d="M37.307 316.24a30.239 30.239 0 0 1-12.853-12.045 30.233 30.233 0 0 1-4.005-17.143c-4.241 3.082-7.009 8.068-7.009 13.712 0 9.365 7.592 16.957 16.958 16.957 2.463 0 4.797-.537 6.909-1.481z" fill="#888889"/><path d="M483.813 372.888c-28.438-14.78-69.175-30.91-111.586-30.91H236.985a114.702 114.702 0 0 1-90.984-44.856l-17.696-23.051a34.1 34.1 0 0 0-27.05-13.336c-4.421 0-7.8 3.946-7.118 8.315l19.956 127.865h355.646a255.924 255.924 0 0 0 14.074-24.027z" fill="#fccb5b"/><path d="M117.459 264.845a34.025 34.025 0 0 0-16.205-4.108c-4.421 0-7.8 3.946-7.118 8.315l19.956 127.865h22.701l-19.956-127.865a7.147 7.147 0 0 1 .622-4.207z" fill="#f8a748"/><path d="M257.997 362.942c0-7.517-1.73-14.628-4.808-20.963h-16.205a114.665 114.665 0 0 1-57.978-15.745c-10.435 8.81-17.07 21.982-17.07 36.708 0 13.269 5.381 25.281 14.08 33.974h67.901c8.7-8.693 14.08-20.705 14.08-33.974z" fill="#ebe4dd"/><g fill="#888889"><path d="M198.837 389.032c-9.275 0-13.762-5.011-13.762-13.256v-14.885c0-8.214 4.477-13.256 13.762-13.256 9.383 0 13.817 5.082 13.817 13.256v14.885c0 8.408-4.651 13.256-13.817 13.256zm5.055-28.141c0-3.831-1.851-5.617-5.055-5.617-3.49 0-5 2.113-5 5.617v14.885c0 3.526 1.529 5.617 5 5.617 3.506 0 5.055-2.125 5.055-5.617v-14.885zM223.434 357.408c-.507.123-3.222 2.971-5.027.366-1.215-1.755-1.007-4.236.871-5.364l7.415-4.494c1.591-1.011 5.504-.02 5.504 2.359v35.724c0 1.973-2.547 2.696-4.381 2.696-1.825 0-4.382-.708-4.382-2.696v-28.591z"/></g><path fill="#f8a748" d="M104.019 389.028h240.738v15.767H104.019z"/><path d="M135.708 389.032h-31.69v15.767h26.499a53.47 53.47 0 0 0 5.191-15.767z" fill="#ea8c2f"/><circle cx="372.226" cy="369.438" r="47.04" fill="#757575"/><circle cx="372.226" cy="369.438" r="27.468" fill="#f95e5a"/><path d="M372.225 369.443c-5.083-8.803-4.731-19.247.002-27.465a27.322 27.322 0 0 0-13.736 3.677c-13.138 7.585-17.639 24.384-10.054 37.522s24.384 17.639 37.522 10.054a27.325 27.325 0 0 0 10.052-10.057c-9.483-.01-18.704-4.927-23.786-13.731z" fill="#ea5050"/><circle cx="372.226" cy="369.438" r="10.273" fill="#ebe4dd"/><path d="M378.934 377.211a27.36 27.36 0 0 1-10.083-17.463c-4.015 1.397-6.9 5.204-6.9 9.695 0 5.674 4.599 10.273 10.273 10.273 2.568 0 4.909-.948 6.71-2.505z" fill="#d8d8d8"/><circle cx="72.559" cy="362.608" r="53.871" fill="#757575"/><g fill="#666"><path d="M348.433 383.18c-11.312-19.592-6.922-43.936 9.258-58.476a47.252 47.252 0 0 0-8.985 4.003c-22.499 12.99-30.208 41.758-17.218 64.256 12.99 22.499 41.758 30.207 64.256 17.218a47.22 47.22 0 0 0 7.96-5.78c-20.683 6.74-43.96-1.629-55.271-21.221zM45.308 378.342c-12.955-22.439-7.927-50.318 10.602-66.97a54.127 54.127 0 0 0-10.291 4.585c-25.767 14.876-34.595 47.824-19.718 73.59 14.876 25.766 47.824 34.595 73.59 19.718a54.087 54.087 0 0 0 9.116-6.619c-23.687 7.72-50.345-1.865-63.299-24.304z"/></g><circle cx="72.559" cy="362.608" r="31.458" fill="#f95e5a"/><path d="M72.555 362.611c-5.821-10.082-5.418-22.043.002-31.454a31.295 31.295 0 0 0-15.731 4.211c-15.046 8.687-20.201 27.926-11.514 42.972s27.926 20.201 42.972 11.514a31.305 31.305 0 0 0 11.512-11.518c-10.861-.012-21.42-5.643-27.241-15.725z" fill="#ea5050"/><circle cx="72.559" cy="362.608" r="11.765" fill="#ebe4dd"/><g fill="#d8d8d8"><path d="M80.239 371.507a31.311 31.311 0 0 1-11.547-20c-4.598 1.6-7.903 5.96-7.903 11.103 0 6.498 5.267 11.765 11.765 11.765a11.702 11.702 0 0 0 7.685-2.868zM169.665 389.032a48.245 48.245 0 0 0 16.796 15.767h47.013a48.245 48.245 0 0 0 16.796-15.767h-80.605z"/></g><path d="M124.73 224.722l64.936 13.656a6.309 6.309 0 0 0 4.432-.682c7.188-4.101 28.07-19.967 9.988-58.775-21.549-46.251-73.581-43.098-89.348-8.935 0 0-7.331 16.709-2.633 41.907 1.2 6.432 6.22 11.482 12.625 12.829z" fill="#f8a748"/><path d="M131.554 216.262c-5.002-26.826 2.803-44.614 2.803-44.614 6.379-13.822 18.336-22.869 31.967-26.081-20.696-4.946-42.355 4.419-51.584 24.418 0 0-7.331 16.709-2.633 41.907 1.2 6.433 6.22 11.483 12.624 12.83l15.027 3.16c-4.211-2.476-7.279-6.657-8.204-11.62z" fill="#ea8c2f"/><path d="M142.166 188.641l1.593 4.035a29.8 29.8 0 0 0 21.394 18.18l43.782 9.509c3.397-8.976 3.835-21.772-3.993-39.516h-57.473c-4.022 0-6.779 4.052-5.303 7.792z" fill="#baeaf7"/><path d="M167.897 197.27l-2.212-5.602c-2.05-5.193 1.778-10.819 7.361-10.819h-25.579c-4.021 0-6.778 4.052-5.302 7.792l1.593 4.035a29.8 29.8 0 0 0 21.394 18.18l15.096 3.279a41.354 41.354 0 0 1-12.351-16.865z" fill="#757575"/></svg>