<svg xmlns="http://www.w3.org/2000/svg" viewBox="0 0 512 512"><path d="M.336 185.527l50.578 148.015a6.222 6.222 0 0 0 7.899 3.876l207.159-70.788-54.601-159.789-207.16 70.787a6.221 6.221 0 0 0-3.875 7.899z" fill="#def2fc"/><path fill="#bcced5" d="M251.379 271.616l14.593-4.987-54.601-159.79-14.594 4.987"/><g fill="#618baa"><path d="M211.36 106.83l18.204 53.269-53.26 18.201-18.204-53.269zM265.975 266.624l-2.499.85-50.757 17.348-2.696-7.87-15.513-45.387 35.121-12.007 18.136-6.19 17.099 50.021z"/></g><g fill="#4e7693"><path d="M264.866 263.389l-1.39 4.085-50.757 17.348-2.696-7.87 19.608-57.394 18.136-6.19zM211.361 106.84l18.205 53.268-14.595 4.988-18.205-53.269z"/></g><g fill="#618baa"><path d="M123.037 196.508l53.269-18.205 18.205 53.27-53.27 18.204z"/><path d="M51.584 161.442l53.27-18.205 18.204 53.27-53.27 18.204zM87.97 267.971l53.27-18.205 18.204 53.27-53.269 18.204z"/><path d="M16.512 232.914l53.269-18.205 18.205 53.269-53.27 18.205z"/></g><path d="M325.796 388.359l-19.443 6.647-36.179-105.881-32.155-94.09-34.778-101.764a10.257 10.257 0 0 1 .508-7.85 10.181 10.181 0 0 1 5.9-5.195c5.371-1.835 11.209 1.027 13.045 6.398l26.182 76.629 45.884 134.271 31.036 90.835z" fill="#fcb043"/><g fill="#df781b"><path d="M294.76 297.524l-24.585-8.399-32.155-94.09 10.856-31.782zM298.64 372.437l7.712 22.57 19.447-6.645-7.755-22.693a39.122 39.122 0 0 0-9.913 2.018 39.133 39.133 0 0 0-9.491 4.75z"/></g><circle cx="320.89" cy="405.006" r="27.326" fill="#ffce94"/><path d="M511.664 185.527l-50.578 148.015a6.222 6.222 0 0 1-7.899 3.876L246.028 266.63l54.601-159.789 207.159 70.788a6.22 6.22 0 0 1 3.876 7.898z" fill="#def2fc"/><path fill="#bcced5" d="M260.621 271.616l-14.593-4.987 54.601-159.79 14.594 4.987"/><g fill="#618baa"><path d="M353.89 125.045l-18.205 53.27-53.26-18.202 18.205-53.27zM317.494 231.58l-18.205 53.269-53.26-18.202 18.205-53.269z"/></g><g fill="#4e7693"><path d="M315.23 111.836l-18.204 53.269-14.595-4.988 18.205-53.27zM264.219 213.366l14.594 4.986-18.199 53.268-14.594-4.986z"/></g><g fill="#618baa"><path d="M370.734 249.773l-53.27-18.205L335.67 178.3l53.269 18.205z"/><path d="M442.202 214.72l-53.269-18.205 18.205-53.27 53.269 18.206zM405.797 321.255l-53.269-18.205 18.205-53.27 53.269 18.206z"/><path d="M477.259 286.178l-53.27-18.205 18.206-53.269 53.269 18.205z"/></g><path d="M308.755 93.269L205.648 395.007l-19.446-6.645L289.308 86.624a10.271 10.271 0 0 1 13.046-6.401 10.214 10.214 0 0 1 5.899 5.199 10.256 10.256 0 0 1 .502 7.847z" fill="#fcb043"/><path d="M213.36 372.437l-7.712 22.57-19.446-6.645 7.755-22.693c3.309.234 6.631.896 9.913 2.018a39.144 39.144 0 0 1 9.49 4.75z" fill="#df781b"/><circle cx="191.11" cy="405.006" r="27.326" fill="#ffce94"/></svg>