<svg height="512pt" viewBox="0 0 512.00014 512" width="512pt" xmlns="http://www.w3.org/2000/svg"><path d="m503.667969 320.988281c-28.765625 109.910157-128.738281 191.011719-247.667969 191.011719-141.050781 0-256.0390625-115.023438-256-256.070312.0390625-141.351563 114.640625-255.929688 256-255.929688 141.386719 0 256 114.613281 256 256 0 12.523438-.917969 24.832031-2.652344 36.875-3.136718 0-5.679687 2.542969-5.679687 5.679688zm0 0" fill="#3691bb"/><path d="m235 422h60c8.285156 0 15 6.714844 15 15s-6.714844 15-15 15h-60c-8.285156 0-15-6.714844-15-15s6.714844-15 15-15zm-105-350c0 5.523438-4.476562 10-10 10h-15c-8.285156 0-15 6.714844-15 15s6.714844 15 15 15h120c8.285156 0 15-6.714844 15-15s-6.714844-15-15-15h-65c-5.523438 0-10-4.476562-10-10s4.476562-10 10-10h35c8.285156 0 15-6.714844 15-15s-6.714844-15-15-15h-62.996094c-15.382812 8.535156-29.800781 18.597656-43.03125 30h31.027344c5.523438 0 10 4.476562 10 10zm10 315c0 8.285156 6.714844 15 15 15h100c8.285156 0 15-6.714844 15-15s-6.714844-15-15-15h-100c-8.285156 0-15 6.714844-15 15zm175-215h70c8.285156 0 15-6.714844 15-15s-6.714844-15-15-15h-70c-8.285156 0-15 6.714844-15 15s6.714844 15 15 15zm80-50h79.15625c-6.480469-10.527344-13.703125-20.554688-21.59375-30h-57.5625c-8.285156 0-15 6.714844-15 15s6.714844 15 15 15zm-80-90h64.996094c-22.726563-12.605469-47.566406-21.855469-73.863282-27.078125-3.710937 2.730469-6.132812 7.117187-6.132812 12.078125 0 8.285156 6.714844 15 15 15zm-125 305c0-8.285156-6.714844-15-15-15h-166.394531c2.734375 10.269531 6.089843 20.28125 10.023437 30h156.371094c8.285156 0 15-6.714844 15-15zm-115-135h70c8.285156 0 15-6.714844 15-15s-6.714844-15-15-15h-70c-8.285156 0-15 6.714844-15 15s6.714844 15 15 15zm85.957031 291.765625c29.386719 11.753906 61.457031 18.234375 95.042969 18.234375 41.96875 0 81.578125-10.097656 116.53125-28h-197.53125c-6.441406 0-11.914062 4.066406-14.042969 9.765625zm333.230469-331.765625h-48.765625c-8.074219 0-15.027344 6.207031-15.40625 14.273438-.40625 8.617187 6.460937 15.726562 14.984375 15.726562h10c8.285156 0 15 6.714844 15 15s6.714844 15 15 15h24.75c-2.777344-20.898438-8.058594-41.007812-15.5625-60zm-39.1875 200h-120c-8.285156 0-15 6.714844-15 15s6.714844 15 15 15h45c5.523438 0 10 4.476562 10 10s-4.476562 10-10 10h-15c-8.285156 0-15 6.714844-15 15s6.714844 15 15 15h66.882812c9.796876-9.265625 18.851563-19.300781 27.089844-30h-38.972656c-5.523438 0-10-4.476562-10-10s4.476562-10 10-10h35c8.285156 0 15-6.714844 15-15s-6.714844-15-15-15zm-415-125c0-8.285156-6.714844-15-15-15h-22.746094c-1.308594 9.835938-2.046875 19.847656-2.2031248 30h24.9492188c8.285156 0 15-6.714844 15-15zm105 205h-64.882812c11.804687 11.167969 24.667968 21.222656 38.429687 30h26.453125c8.285156 0 15-6.714844 15-15s-6.714844-15-15-15zm0 0" fill="#0680ae"/><path d="m368.871094 318.652344-2.585938 9.65625c-2.859375 10.671875-13.828125 17.003906-24.496094 14.144531l-164.308593-44.027344c-10.671875-2.859375-17.003907-13.828125-14.144531-24.496093l2.589843-9.660157c2.859375-10.667969 13.824219-17 24.496094-14.140625l164.308594 44.027344c10.667969 2.859375 17 13.824219 14.140625 24.496094zm0 0" fill="#b4d2d7"/><path d="m7.382812 154.359375 259.601563 89.898437-20.71875 60.496094-237.0625-126.128906c-7.632813-4.0625-11.113281-13.125-8.152344-21.253906.933594-2.566406 3.753907-3.90625 6.332031-3.011719zm283.972657 96.429687-12.300781 62.75 224.523437 7.78125c2.453125-9.320312 4.386719-18.851562 5.78125-28.554687zm0 0" fill="#e1ebf0"/><path d="m133.773438 269.4375c-5 18.667969-24.191407 29.75-42.863282 24.746094-18.671875-5-29.753906-24.195313-24.75-42.863282 5.003906-18.671874 24.195313-29.753906 42.867188-24.75 18.671875 5.003907 29.75 24.195313 24.746094 42.867188zm303.222656 45.011719c-18.671875-5.003907-37.863282 6.078125-42.863282 24.75-5.003906 18.671875 6.074219 37.863281 24.746094 42.867187 18.671875 5 37.863282-6.078125 42.867188-24.75s-6.078125-37.863281-24.75-42.867187zm0 0" fill="#b4d2d7"/><path d="m133.773438 269.4375c-4.460938 16.652344-20.207032 27.253906-36.808594 25.804688-15.097656-7.046876-23.433594-24.101563-18.972656-40.753907 4.460937-16.652343 20.210937-27.253906 36.808593-25.804687 15.101563 7.042968 23.4375 24.101562 18.972657 40.753906zm309 47.125c-16.597657-1.449219-32.347657 9.15625-36.808594 25.804688-4.460938 16.652343 3.875 33.710937 18.972656 40.757812 16.601562 1.445312 32.347656-9.15625 36.808594-25.808594 4.460937-16.652344-3.875-33.707031-18.972656-40.753906zm0 0" fill="#e1ebf0"/><path d="m106.761719 235.023438c-14.003907-3.753907-28.398438 4.554687-32.148438 18.5625-3.753906 14 4.558594 28.394531 18.5625 32.148437 14 3.75 28.394531-4.558594 32.148438-18.5625 3.75-14.003906-4.558594-28.398437-18.5625-32.148437zm1.660156 27.621093c-1.253906 4.667969-6.050781 7.4375-10.71875 6.183594-4.667969-1.25-7.4375-6.046875-6.1875-10.714844 1.253906-4.667969 6.050781-7.4375 10.71875-6.1875s7.4375 6.050781 6.1875 10.71875zm326.3125 60.257813c-14.003906-3.753906-28.398437 4.558594-32.152344 18.5625-3.75 14.003906 4.558594 28.394531 18.5625 32.148437 14.003907 3.753907 28.398438-4.558593 32.152344-18.5625 3.75-14.003906-4.5625-28.398437-18.5625-32.148437zm1.65625 27.621094c-1.25 4.667968-6.046875 7.4375-10.714844 6.1875-4.667969-1.253907-7.4375-6.050782-6.1875-10.71875 1.25-4.667969 6.050781-7.4375 10.714844-6.1875 4.667969 1.253906 7.4375 6.050781 6.1875 10.71875zm0 0" fill="#87a0af"/><path d="m434.648438 208.121094c-1.664063 7.683594-8.710938 12.980468-16.550782 12.449218l-105.394531-7.15625-2.601563 15.269532-48.296874-12.941406 5.566406-14.433594-95.035156-46.589844c-7.058594-3.460938-10.511719-11.570312-8.113282-19.054688.867188-2.703124 3.804688-4.144531 6.472656-3.171874l108.046876 39.324218 33.765624-87.550781c2.03125-5.269531 7.714844-8.160156 13.167969-6.695313 5.511719 1.476563 8.992188 6.902344 8.035157 12.527344l-15.703126 92.183594 112.621094 19.859375c2.796875.492187 4.621094 3.207031 4.019532 5.980469zm0 0" fill="#e1ebf0"/><path d="m275.96875 345.945312-11.515625 1.003907c-7.886719.6875-15.761719-1.421875-22.25-5.960938l-9.46875-6.628906c-27.09375-18.957031-39.429687-52.839844-30.871094-84.78125l7.257813-27.097656c10.597656-39.550781 51.253906-63.027344 90.808594-52.425781 39.554687 10.597656 63.027343 51.253906 52.429687 90.804687l-7.261719 27.097656c-8.558594 31.941407-36.183594 55.113281-69.128906 57.988281zm0 0" fill="#b4d2d7"/><path d="m264.453125 346.949219c-7.886719.6875-15.761719-1.421875-22.25-5.960938l-1.1875-.832031c-15.320313-21.757812-20.359375-51.988281-12.476563-81.398438l8.535157-31.859374c7.300781-27.242188 24.796875-48.511719 45.988281-59.328126 5.585938.179688 11.234375.976563 16.867188 2.484376 39.550781 10.597656 63.027343 51.253906 52.425781 90.808593l-7.257813 27.09375c-8.558594 31.941407-36.183594 55.117188-69.128906 57.988281zm0 0" fill="#e1ebf0"/><path d="m250.167969 255.3125c.53125.144531.847656.691406.707031 1.226562l-7.835938 29.242188c-.121093.445312-.527343.746094-.988281.734375-6.148437-.164063-12.316406.367187-18.382812 1.609375-1.515625 0-2.613281-1.433594-2.222657-2.894531l4.226563-15.777344c2.859375-10.667969 13.828125-17 24.496094-14.140625zm3.035156 31.171875c-.160156.59375.246094 1.1875.867187 1.25.789063.078125 1.582032.105469 2.34375.3125l17.742188 4.753906c2.273438.605469 4.515625 1.320313 6.71875 2.125.550781.199219 1.152344-.109375 1.304688-.675781l7.332031-27.359375c.140625-.535156-.175781-1.082031-.707031-1.226563l-27.046876-7.246093c-.53125-.144531-1.082031.175781-1.226562.707031zm47.191406-17.710937c-.53125-.144532-1.082031.171874-1.222656.707031l-7.835937 29.242187c-.121094.445313.082031.910156.484374 1.128906 5.410157 2.929688 10.484376 6.476563 15.117188 10.585938h1.234375c.96875 0 1.96875-.765625 2.21875-1.703125l4.148437-15.46875c2.855469-10.667969-3.476562-21.636719-14.144531-24.492187zm0 0" fill="#025f80"/></svg>